<svg width="8" height="8" viewBox="0 0 8 8" fill="none" xmlns="http://www.w3.org/2000/svg">
<path d="M6.27674 1.1815C6.33824 1.319 6.44874 1.4265 6.58624 1.4815C6.77825 1.56002 6.94176 1.69523 7.05494 1.86907C7.16813 2.04292 7.22562 2.24714 7.21974 2.4545C7.21463 2.69752 7.12317 2.93077 6.96174 3.1125C6.8801 3.2044 6.82254 3.31513 6.79424 3.43475C7.00984 3.51042 7.1953 3.65355 7.32314 3.84293C7.45097 4.03231 7.51437 4.25784 7.50394 4.48609C7.4935 4.71433 7.40978 4.93314 7.26519 5.11005C7.1206 5.28697 6.92284 5.41258 6.70124 5.46825C6.46625 6.845 5.33974 7.75 4.00124 7.75C2.66249 7.75 1.53625 6.8445 1.30125 5.4675C1.08057 5.41154 0.883697 5.28618 0.739626 5.1099C0.595554 4.93363 0.511899 4.71574 0.500979 4.48834C0.49006 4.26094 0.552454 4.03604 0.678973 3.84677C0.805491 3.6575 0.989446 3.51386 1.20375 3.437L1.18925 3.0075C1.14525 1.9235 1.901 0.998003 2.92099 0.792503C3.11591 0.612 3.36925 0.507645 3.63474 0.498503C3.87299 0.491003 4.09374 0.561003 4.27799 0.683503C4.38849 0.758503 4.53349 0.758503 4.64399 0.683503C4.82799 0.561003 5.0515 0.491003 5.28974 0.498503C5.73175 0.513503 6.10975 0.791253 6.27674 1.1815ZM1.69 3.01825L1.7105 3.62275C1.71267 3.68513 1.69142 3.74607 1.65094 3.79358C1.61046 3.84109 1.55368 3.87174 1.49175 3.8795C1.35203 3.89701 1.22395 3.96629 1.13284 4.07365C1.04172 4.18101 0.994179 4.31863 0.999612 4.45934C1.00505 4.60005 1.06306 4.7336 1.16218 4.83361C1.26131 4.93362 1.39434 4.99282 1.535 4.9995C1.59457 5.00232 1.65118 5.02635 1.69459 5.06724C1.73801 5.10813 1.76537 5.1632 1.77175 5.2225C1.903 6.448 2.85249 7.25 4.00124 7.25C5.14999 7.25 6.09949 6.448 6.23074 5.2225C6.23714 5.16308 6.26461 5.10791 6.30818 5.06701C6.35175 5.0261 6.40854 5.00215 6.46824 4.9995C6.60972 4.99314 6.7436 4.93364 6.84312 4.83289C6.94265 4.73214 7.00052 4.59755 7.00516 4.456C7.0098 4.31446 6.96087 4.17637 6.86816 4.06932C6.77544 3.96226 6.64575 3.89412 6.50499 3.8785C6.4418 3.87158 6.38362 3.84084 6.34229 3.79254C6.30095 3.74424 6.27957 3.68201 6.28249 3.6185L6.30574 3.108C6.21281 3.03914 6.10016 3.00205 5.98449 3.00225H4.71499C4.45668 3.00176 4.20206 2.9409 3.97144 2.82453C3.74083 2.70816 3.5406 2.5395 3.38674 2.332C3.38023 2.3225 3.37073 2.31546 3.35975 2.312H3.32774C3.31615 2.31488 3.3059 2.32168 3.29875 2.33125C3.29159 2.34082 3.28797 2.35257 3.2885 2.3645V2.797C3.28876 2.85087 3.26774 2.90267 3.23 2.94111C3.19226 2.97955 3.14086 3.00153 3.08699 3.00225C2.65499 3.00225 2.28675 2.72725 2.1345 2.342C2.13073 2.33137 2.12303 2.32259 2.11298 2.31747C2.10294 2.31236 2.09131 2.31129 2.08049 2.3145C2.07163 2.31653 2.06358 2.3212 2.05743 2.3279C2.05127 2.33459 2.04728 2.343 2.046 2.352C2.00675 2.5845 1.8985 2.7995 1.739 2.96475C1.722 2.98225 1.7055 3.00025 1.69 3.01825Z" fill="white"/>
</svg>
